<?xml version="1.0" encoding="utf-8"?>
<!-- Generator: Adobe Illustrator 27.2.0, SVG Export Plug-In . SVG Version: 6.00 Build 0)  -->
<svg
  version="1.1"
  id="Layer_1"
  xmlns="http://www.w3.org/2000/svg"
  xmlns:xlink="http://www.w3.org/1999/xlink"
  x="0px"
  y="0px"
  viewBox="0 0 512 512"
  style="background-color: #373737; enable-background: new 0 0 512 512;"
  xml:space="preserve"
>
  <style type="text/css">
    .st0 {
      fill: #c8c8c8;
    }
  </style>
  <g>
    <path
      class="st0"
      d="M256,0c141.36,0,255.96,114.6,255.96,255.96c0,141.36-114.6,255.96-255.96,255.96
		c-41.99,0-82.54-10.14-118.87-29.22L27.31,511.29c-11.63,3.03-23.51-3.94-26.54-15.57c-0.94-3.59-0.94-7.37,0-10.97l28.57-109.77
		C10.21,338.62,0.04,298.01,0.04,255.96C0.04,114.6,114.64,0,256,0z M288.04,281.56H172.81l-2.61,0.17
		c-9.37,1.27-16.59,9.3-16.59,19.02s7.22,17.75,16.59,19.02l2.61,0.17h115.23l2.61-0.17c9.37-1.27,16.59-9.3,16.59-19.02
		s-7.22-17.75-16.59-19.02L288.04,281.56z M339.19,191.97H172.81l-2.61,0.18c-9.37,1.27-16.59,9.3-16.59,19.02
		c0,9.72,7.22,17.75,16.59,19.02l2.61,0.17h166.38l2.61-0.17c9.37-1.27,16.59-9.3,16.59-19.02c0-9.72-7.22-17.75-16.59-19.02
		L339.19,191.97z"
    />
  </g>
</svg>
